<?xml version="1.0" standalone="no"?>
<!DOCTYPE svg PUBLIC "-//W3C//DTD SVG 20010904//EN"
 "http://www.w3.org/TR/2001/REC-SVG-20010904/DTD/svg10.dtd">
<svg version="1.0" xmlns="http://www.w3.org/2000/svg"
 width="300.000000pt" height="300.000000pt" viewBox="0 0 300.000000 300.000000"
 preserveAspectRatio="xMidYMid meet">
<metadata>
Created by potrace 1.11, written by Peter Selinger 2001-2013
</metadata>
<g transform="translate(0.000000,300.000000) scale(0.100000,-0.100000)"
fill="#000000" stroke="none">
<path d="M400 2640 c-10 -6 -9 -9 1 -13 19 -6 -1 -28 -29 -30 -20 -1 -21 -6
-19 -119 1 -65 -2 -118 -6 -118 -4 0 -3 -8 2 -19 6 -10 7 -21 4 -25 -6 -6 -8
-117 -3 -141 1 -5 1 -14 0 -20 -4 -21 -1 -157 4 -163 3 -3 1 -11 -5 -19 -6 -7
-7 -13 -2 -13 5 0 6 -23 3 -54 -3 -29 -3 -65 1 -80 4 -14 3 -26 -1 -26 -5 0
-5 -13 0 -29 5 -19 4 -33 -3 -40 -7 -7 -7 -11 -1 -11 6 0 8 -21 4 -54 -3 -29
-3 -65 1 -80 4 -14 3 -26 -1 -26 -5 0 -5 -13 0 -29 5 -19 4 -33 -3 -40 -7 -7
-7 -11 -1 -11 7 0 8 -16 4 -45 -4 -24 -3 -50 1 -57 4 -6 5 -17 1 -22 -7 -13
-6 -131 2 -144 4 -6 3 -13 -2 -16 -5 -3 -7 -20 -6 -38 7 -77 7 -216 0 -226 -6
-10 10 -26 26 -27 3 0 10 -4 15 -9 5 -5 3 -6 -4 -2 -8 4 -13 2 -13 -6 0 -9 -3
-9 -10 2 -8 13 -10 12 -10 -2 0 -10 6 -18 13 -18 9 0 9 -2 -1 -9 -9 -5 -2 -8
20 -9 18 0 34 -6 36 -11 2 -6 8 -11 13 -11 6 0 8 4 5 8 -3 5 1 9 8 9 8 0 11
-8 8 -19 -2 -10 -9 -15 -16 -11 -6 3 -7 2 -3 -3 12 -13 187 -12 187 1 0 5 4 3
10 -5 5 -8 12 -11 15 -8 4 4 17 3 30 -2 15 -6 27 -4 35 3 10 9 14 9 17 0 2 -7
11 -9 20 -6 8 3 19 0 24 -8 5 -9 9 -10 9 -2 0 12 47 12 68 0 7 -5 12 -3 12 4
0 7 3 9 6 6 4 -4 1 -13 -6 -22 -7 -9 -10 -19 -6 -22 4 -4 11 -1 16 7 9 13 10
13 10 0 0 -12 2 -13 9 -1 5 8 10 9 12 3 2 -6 20 -12 39 -15 21 -2 34 -9 32
-16 -1 -7 2 -10 8 -6 6 3 8 10 5 15 -3 5 3 8 13 7 13 -1 18 -7 14 -19 -2 -10
-9 -15 -15 -11 -6 3 -7 1 -3 -5 3 -6 24 -10 46 -9 22 2 40 -1 40 -5 0 -4 7 -5
15 -2 8 4 15 2 15 -4 0 -6 -6 -13 -12 -15 -10 -4 -10 -6 0 -6 7 -1 11 -5 8
-10 -4 -5 1 -8 10 -7 9 1 33 0 53 -3 27 -5 36 -11 36 -26 0 -14 7 -20 25 -20
15 0 24 -5 22 -13 -1 -8 2 -11 8 -7 23 14 49 14 43 -1 -3 -7 -8 -12 -12 -10
-4 3 -13 0 -21 -6 -12 -8 -12 -9 3 -4 9 3 17 1 17 -4 0 -6 14 -10 30 -10 29 0
35 -8 31 -38 -2 -9 6 -12 21 -10 13 2 22 9 20 16 -2 13 14 17 21 5 2 -5 2 -1
-1 7 -2 8 -7 23 -9 32 -3 10 0 18 6 18 7 0 10 -4 6 -9 -9 -15 15 -25 28 -12 9
9 7 10 -7 5 -13 -5 -17 -4 -12 4 3 6 -2 16 -11 21 -17 10 -17 12 -1 21 10 6
14 18 11 30 -4 16 -2 19 13 14 15 -5 16 -4 4 4 -19 14 -33 4 -27 -19 3 -11 1
-19 -4 -19 -14 0 -6 104 10 116 11 9 12 12 1 19 -9 5 -11 4 -6 -3 4 -7 2 -12
-3 -12 -6 0 -11 11 -11 25 0 14 5 25 11 25 5 0 7 -5 3 -12 -5 -7 -3 -8 6 -3
11 7 10 10 -1 19 -17 14 -25 76 -9 76 6 0 8 -5 4 -12 -5 -7 -3 -8 6 -3 11 7
10 10 -1 19 -18 14 -21 93 -4 100 9 3 11 13 7 28 -5 21 -4 22 14 8 18 -14 18
-14 5 2 -16 22 -35 13 -28 -13 3 -11 1 -19 -3 -19 -14 0 -7 109 6 114 8 3 10
14 6 28 -5 21 -4 22 14 8 18 -14 18 -14 5 2 -16 22 -35 13 -28 -13 3 -11 1
-19 -4 -19 -14 0 -6 104 10 116 11 9 12 12 1 19 -9 5 -11 4 -6 -3 4 -7 2 -12
-3 -12 -6 0 -11 11 -11 25 0 14 5 25 11 25 5 0 7 -5 3 -12 -5 -7 -3 -8 6 -3
11 7 10 10 -1 19 -17 14 -25 76 -9 76 6 0 8 -5 4 -12 -5 -7 -3 -8 6 -3 11 7
10 10 -1 19 -17 13 -24 66 -9 66 6 0 9 -4 6 -8 -2 -4 0 -14 5 -22 7 -11 8 -9
6 8 -2 13 -10 28 -18 33 -12 8 -11 11 3 19 11 7 14 17 10 32 -5 21 -4 22 14 8
18 -14 18 -14 5 2 -16 22 -35 13 -28 -13 3 -11 1 -19 -3 -19 -14 0 -7 109 6
114 7 3 10 14 7 26 -4 16 -2 19 13 14 15 -5 16 -4 4 4 -19 14 -33 4 -27 -19 3
-11 1 -19 -3 -19 -13 0 -8 109 5 114 16 6 12 46 -6 57 -12 8 -12 11 3 19 11 7
14 17 10 32 -5 21 -4 22 14 8 18 -14 18 -14 5 2 -16 22 -35 13 -28 -13 3 -11
1 -19 -3 -19 -14 0 -7 109 6 114 7 3 10 14 7 26 -4 16 -2 19 13 14 15 -5 16
-4 4 4 -19 14 -33 4 -27 -19 3 -11 1 -19 -4 -19 -14 0 -6 104 10 116 11 9 12
12 1 19 -9 5 -11 4 -6 -3 4 -7 2 -12 -3 -12 -15 0 -14 13 2 29 10 11 10 13 0
7 -7 -4 -13 -2 -13 3 0 6 6 11 13 11 8 0 9 3 1 8 -6 4 -11 23 -11 42 -1 66 -6
130 -11 130 -3 0 -15 -8 -26 -17 -20 -17 -20 -17 -7 0 10 12 10 17 2 17 -7 0
-11 10 -9 23 2 16 -2 22 -14 21 -10 -1 -15 3 -12 8 3 5 -2 8 -12 6 -15 -2 -18
3 -17 30 0 24 -3 30 -10 23 -13 -13 -38 -15 -36 -3 6 34 -3 48 -28 47 -23 0
-28 4 -27 23 1 17 -4 22 -22 22 -13 0 -25 5 -25 10 -1 6 -2 14 -3 19 0 5 -5
13 -9 18 -5 4 -7 -3 -5 -16 2 -16 -2 -25 -12 -26 -10 -2 -17 6 -18 19 -1 16 1
18 8 6 6 -9 10 -10 10 -3 0 17 -29 31 -51 26 -13 -4 -19 0 -19 11 0 9 -5 16
-11 16 -5 0 -7 -4 -4 -10 3 -5 1 -10 -5 -10 -7 0 -9 8 -5 20 6 18 2 20 -47 21
-29 1 -55 1 -58 1 -3 0 -11 6 -18 14 -11 12 -9 13 10 11 13 -1 26 -6 30 -12 5
-6 8 -3 8 7 0 21 -17 32 -23 16 -4 -9 -8 -9 -14 -3 -12 15 -56 18 -47 2 5 -8
2 -7 -10 2 -11 9 -44 15 -94 15 -42 1 -83 5 -89 9 -8 5 -13 3 -13 -4 0 -7 -3
-9 -6 -6 -4 4 -2 13 4 20 7 8 9 17 5 20 -12 13 -32 7 -36 -10 -4 -16 -5 -16
-6 -2 -1 15 -16 17 -105 17 -57 0 -109 -4 -116 -8z m150 -20 c0 -5 -2 -10 -4
-10 -3 0 -8 5 -11 10 -3 6 -1 10 4 10 6 0 11 -4 11 -10z m55 -8 c-3 -3 -11 0
-18 7 -9 10 -8 11 6 5 10 -3 15 -9 12 -12z m811 -892 c0 -11 -4 -20 -8 -20 -4
0 -8 9 -8 20 0 11 4 20 8 20 4 0 8 -9 8 -20z m-921 -878 c-3 -3 0 -11 6 -19 6
-7 7 -13 3 -13 -5 0 -14 8 -21 18 -9 15 -8 19 3 19 8 0 12 -3 9 -5z m42 -12
c1 -16 -1 -17 -12 -7 -11 10 -8 19 10 27 1 0 1 -9 2 -20z m64 -3 c-10 -9 -11
-8 -5 6 3 10 9 15 12 12 3 -3 0 -11 -7 -18z m-31 3 c0 -5 -5 -10 -11 -10 -5 0
-7 5 -4 10 3 6 8 10 11 10 2 0 4 -4 4 -10z m475 -118 c-3 -3 -11 0 -18 7 -9
10 -8 11 6 5 10 -3 15 -9 12 -12z m102 -36 c0 -11 -9 -13 -35 -7 -2 1 0 6 3
11 9 15 32 12 32 -4z m103 -42 c0 -2 -7 -4 -15 -4 -8 0 -15 4 -15 10 0 5 7 7
15 4 8 -4 15 -8 15 -10z"/>
<path d="M673 2635 c0 -17 0 -17 45 -19 17 -1 32 1 32 6 0 4 -5 8 -11 8 -5 0
-8 4 -5 8 3 5 -1 9 -9 9 -8 0 -12 -4 -9 -9 3 -4 -2 -8 -10 -8 -9 0 -16 5 -16
10 0 6 -4 10 -8 10 -5 0 -9 -7 -9 -15z"/>
<path d="M766 2642 c-3 -5 1 -9 9 -9 8 0 12 4 9 9 -3 4 -7 8 -9 8 -2 0 -6 -4
-9 -8z"/>
<path d="M2259 2643 c-2 -4 -6 -22 -8 -32 0 -5 -21 -9 -45 -8 -25 0 -52 -5
-62 -14 -10 -8 -15 -9 -11 -2 5 8 -6 11 -36 10 -33 -2 -43 -6 -43 -19 0 -9 4
-14 8 -12 4 3 8 0 8 -5 0 -6 -12 -12 -27 -12 -16 -1 -41 -2 -58 -3 -22 -1 -31
-7 -33 -23 -2 -12 -11 -22 -20 -23 -9 0 -31 -1 -48 -2 -30 -2 -39 -18 -19 -35
4 -4 5 -3 2 4 -4 7 -1 10 8 9 9 -1 15 -6 15 -12 0 -9 -7 -10 -66 -13 -14 0
-22 -5 -19 -11 3 -5 0 -10 -7 -10 -9 0 -9 -3 2 -10 12 -7 8 -11 -17 -16 -18
-4 -33 -13 -33 -20 0 -8 -6 -14 -12 -14 -9 0 -8 -4 2 -10 12 -8 9 -10 -12 -10
-20 0 -27 -6 -30 -22 -2 -15 -10 -23 -23 -23 -15 0 -20 -7 -20 -25 0 -24 -20
-49 -40 -50 -5 0 -3 5 5 10 13 8 12 10 -3 10 -11 0 -18 -7 -16 -17 4 -42 -2
-93 -11 -93 -5 0 -7 8 -4 18 5 14 4 15 -5 2 -8 -11 -7 -18 2 -25 10 -8 13 -87
13 -370 -1 -198 -5 -366 -10 -374 -6 -10 -6 -12 2 -7 7 4 12 3 12 -2 0 -6 -7
-13 -16 -16 -9 -3 -12 -11 -8 -18 5 -8 2 -9 -12 -4 -14 5 -16 4 -7 -5 13 -13
37 -3 28 12 -4 5 -2 9 3 9 6 0 9 -18 9 -40 -1 -22 -5 -40 -10 -40 -4 0 -6 4
-2 9 9 15 -15 25 -28 12 -9 -9 -8 -11 5 -6 13 5 16 2 13 -14 -2 -11 1 -24 7
-27 7 -4 8 -2 4 4 -4 7 -3 12 2 12 12 0 10 -100 -2 -119 -6 -10 -5 -12 2 -7 7
4 12 3 12 -2 0 -6 -7 -13 -16 -16 -9 -3 -12 -11 -8 -18 5 -8 2 -9 -12 -4 -14
5 -16 4 -7 -5 13 -13 37 -3 28 12 -4 5 -2 9 3 9 6 0 9 -18 9 -40 -1 -22 -5
-40 -10 -40 -4 0 -6 4 -2 9 9 15 -15 25 -28 12 -9 -9 -8 -11 5 -6 13 5 16 2
13 -14 -2 -11 1 -24 7 -27 7 -4 8 -2 4 4 -4 7 -3 12 2 12 12 0 10 -100 -2
-119 -6 -10 -5 -12 2 -7 7 4 12 3 12 -2 0 -6 -7 -13 -16 -16 -9 -3 -12 -11 -8
-18 5 -8 2 -9 -12 -4 -14 5 -16 4 -7 -5 13 -13 37 -3 28 12 -4 5 -1 9 4 9 15
0 14 -23 -1 -39 -7 -8 -8 -11 -3 -8 17 9 14 -312 -3 -322 -8 -5 3 -8 28 -8 35
0 41 3 37 18 -5 18 11 29 42 29 14 0 17 6 13 25 -4 21 -1 25 19 25 46 0 78 4
77 9 -3 32 4 43 22 38 20 -5 46 24 36 41 -2 4 15 7 37 7 26 0 47 6 55 15 8 8
11 10 8 4 -2 -5 6 -10 20 -10 13 0 24 4 24 9 0 5 8 3 17 -4 14 -12 14 -10 -1
13 l-18 28 51 0 c37 0 50 3 45 12 -5 7 -3 8 7 2 18 -11 90 -13 83 -2 -3 4 3 8
13 9 10 0 13 3 6 6 -20 8 -15 22 7 20 11 -1 19 -6 16 -12 -2 -7 2 -12 9 -12 7
0 11 5 9 12 -5 11 21 16 106 19 25 1 51 5 59 10 10 6 12 5 7 -2 -4 -7 -1 -12
9 -12 10 0 13 5 9 12 -5 7 -3 8 7 2 27 -17 92 -12 114 8 19 18 19 19 1 12 -13
-5 -17 -4 -12 4 3 6 16 11 29 11 12 0 36 1 52 1 l30 0 -24 14 -24 14 21 6 c24
8 31 51 10 59 -10 4 -10 6 0 6 8 1 12 23 12 74 0 45 -5 78 -12 86 -10 11 -10
13 0 7 9 -6 12 26 12 146 0 109 -4 158 -12 167 -10 11 -10 13 0 7 9 -6 12 26
12 146 0 109 -4 158 -12 167 -10 11 -10 13 0 7 9 -6 12 26 12 146 0 109 -4
158 -12 167 -10 11 -10 13 0 7 9 -6 12 26 12 146 0 109 -4 158 -12 167 -11 11
-10 12 0 7 10 -6 12 12 10 86 -2 71 -6 92 -16 90 -8 -1 -11 2 -7 8 3 6 11 8
16 5 5 -4 9 1 9 9 0 10 -6 13 -15 10 -8 -4 -21 -1 -29 5 -7 6 -17 7 -21 3 -5
-4 -5 -1 -1 6 4 7 13 9 19 6 7 -4 4 2 -6 12 -15 16 -19 17 -27 4 -6 -10 -10
-11 -10 -3 0 9 -25 12 -90 11 -49 0 -87 -5 -84 -9 3 -5 0 -9 -5 -9 -6 0 -11 4
-11 8 0 7 -108 11 -111 5z m46 -19 c-8 -6 -12 -14 -9 -17 3 -3 -2 -4 -12 -3
-31 5 -25 32 7 31 24 0 27 -2 14 -11z m21 -12 c-17 -16 -18 -16 -5 5 7 12 15
20 18 17 3 -2 -3 -12 -13 -22z m39 -3 c-4 -5 -12 -9 -18 -8 -9 0 -8 2 1 6 6 2
9 10 6 15 -4 7 -2 8 5 4 6 -4 9 -12 6 -17z m-259 -41 c-6 -10 -14 -18 -19 -18
-4 0 -5 5 -2 10 3 6 1 10 -4 10 -6 0 -11 4 -11 8 0 4 11 8 24 8 20 0 22 -3 12
-18z m-106 -50 c0 -11 -12 -10 -30 2 -12 7 -10 9 8 7 12 0 22 -5 22 -9z m430
-1678 c0 -5 -5 -10 -11 -10 -5 0 -7 5 -4 10 3 6 8 10 11 10 2 0 4 -4 4 -10z
m100 -21 c0 -3 -6 -6 -14 -6 -8 0 -11 8 -8 20 4 14 7 16 13 5 5 -7 9 -16 9
-19z m-40 12 c0 -5 -10 -11 -22 -14 -22 -6 -22 -6 -4 8 23 17 26 18 26 6z
m-314 -48 c-2 -12 -13 -18 -34 -19 -17 -1 -29 3 -26 7 2 4 11 6 18 3 7 -3 19
2 26 11 16 19 19 19 16 -2z m-182 -49 c3 -8 2 -13 -3 -9 -5 3 -11 1 -13 -4 -1
-5 -10 -2 -18 7 -13 14 -12 15 3 9 9 -3 17 -2 17 3 0 15 7 12 14 -6z m-214
-94 c0 8 3 11 6 7 3 -3 1 -14 -5 -24 -6 -11 -11 -13 -11 -5 0 7 -4 11 -8 8 -5
-3 -9 1 -9 9 0 11 4 12 14 4 10 -9 13 -8 13 1z"/>
<path d="M1270 2379 c0 -5 5 -7 10 -4 6 3 10 8 10 11 0 2 -4 4 -10 4 -5 0 -10
-5 -10 -11z"/>
<path d="M1310 2329 c0 -5 5 -7 10 -4 6 3 10 8 10 11 0 2 -4 4 -10 4 -5 0 -10
-5 -10 -11z"/>
<path d="M97 2273 c4 -26 3 -27 -9 -8 -7 11 -20 21 -28 23 -11 2 -11 -1 3 -11
21 -17 22 -28 2 -21 -10 4 -15 0 -15 -12 0 -14 -2 -16 -9 -6 -7 11 -10 10 -15
-3 -9 -24 -8 -25 11 -18 19 7 18 5 -11 -17 -13 -10 -17 -10 -12 -2 4 6 2 12
-3 12 -12 0 -16 -1776 -4 -1805 5 -13 7 -14 14 -3 7 10 9 11 9 0 0 -7 4 -10
10 -7 9 5 15 -15 11 -37 -2 -12 24 -9 38 4 11 10 13 10 7 1 -5 -10 5 -13 39
-13 28 0 44 4 40 10 -3 6 -1 10 4 10 6 0 11 -4 11 -10 0 -5 5 -10 10 -10 6 0
9 10 6 23 -4 22 -1 22 73 22 42 0 79 5 83 10 5 6 8 5 8 -3 0 -7 5 -10 11 -7
17 11 59 13 59 3 0 -5 5 -6 10 -3 6 4 7 12 3 18 -5 9 -3 9 8 1 15 -11 169 -11
188 0 5 4 8 13 5 21 -4 9 1 13 15 12 12 -1 21 -8 21 -15 0 -11 -3 -12 -13 -4
-10 8 -13 6 -13 -8 0 -14 4 -16 17 -9 22 11 32 12 25 1 -3 -5 5 -7 17 -6 12 1
25 3 30 3 4 1 6 4 6 9 -4 22 4 28 36 28 19 0 35 -4 35 -8 0 -7 -9 -10 -26 -7
-4 0 -11 -5 -16 -13 -7 -9 -8 -7 -3 7 5 15 3 17 -6 8 -17 -17 -2 -35 21 -23
25 13 33 13 24 -2 -6 -10 -3 -9 8 0 9 8 14 21 11 30 -4 15 -3 15 6 2 9 -13 11
-13 11 0 0 13 1 13 10 0 5 -8 10 -10 10 -5 0 6 27 10 63 10 53 0 63 -2 64 -17
1 -10 -3 -18 -8 -18 -6 0 -8 4 -4 9 3 5 0 13 -6 17 -7 4 -9 3 -5 -4 4 -7 -1
-10 -13 -7 -11 2 -22 -2 -24 -9 -4 -9 20 -12 94 -11 54 0 99 -4 99 -8 0 -5 6
-5 13 0 6 4 22 6 33 5 18 -3 21 1 17 22 -5 24 -27 33 -66 27 -4 0 -6 2 -6 6 4
28 -3 43 -21 43 -12 0 -25 10 -31 22 l-10 23 5 -23 c5 -24 -1 -27 -24 -12 -9
6 -11 10 -3 10 7 0 10 7 7 15 -4 9 -11 15 -18 14 -35 -4 -86 2 -86 12 0 5 6 7
13 3 6 -4 9 -3 5 1 -11 11 -60 16 -53 5 3 -5 1 -11 -4 -14 -5 -4 -12 -2 -15 3
-8 12 20 34 33 27 5 -4 12 -2 15 3 4 5 -6 8 -21 6 -16 -2 -33 1 -40 6 -7 7
-14 6 -18 -1 -9 -14 -27 -2 -19 13 3 7 -2 3 -10 -7 -9 -11 -16 -16 -16 -10 0
5 -27 9 -61 9 -68 0 -79 7 -49 28 21 14 20 15 -4 15 -14 0 -23 -4 -21 -9 3 -4
0 -11 -6 -15 -7 -4 -9 -3 -5 4 12 20 -16 24 -170 24 -151 0 -160 2 -155 32 3
16 -23 26 -53 20 -26 -4 -27 -3 -12 11 23 24 20 38 -9 33 -16 -4 -25 -1 -25 8
0 7 -8 15 -17 17 -17 4 -17 5 0 6 9 0 17 6 17 12 0 6 -9 8 -20 4 -18 -6 -25 3
-21 28 0 4 -3 7 -7 7 -5 0 -7 16 -6 35 2 24 0 33 -8 29 -7 -4 -8 -3 -4 4 4 7
9 21 11 33 3 16 0 19 -13 15 -15 -5 -15 -5 -2 6 21 17 24 214 4 222 -8 3 -10
14 -6 28 5 21 4 22 -14 8 -18 -14 -18 -14 -5 2 16 22 35 13 28 -13 -3 -11 -1
-19 3 -19 5 0 8 33 7 74 0 45 -5 72 -11 69 -5 -4 -6 -1 0 8 14 23 13 277 -2
283 -7 3 -10 14 -7 27 5 17 3 20 -7 14 -9 -5 -11 -4 -6 4 11 17 29 2 23 -20
-3 -11 -1 -19 4 -19 13 0 7 109 -7 114 -7 3 -10 14 -7 27 5 17 3 20 -7 14 -9
-5 -11 -4 -6 4 11 17 29 2 23 -20 -3 -11 -1 -19 4 -19 4 0 7 24 7 54 -1 32 -6
52 -12 49 -5 -4 -6 -1 0 8 5 8 9 101 9 207 1 192 1 192 -21 192 -12 0 -25 7
-28 16 -9 23 -8 26 7 18 6 -4 8 -3 4 1 -12 14 -38 15 -31 2 5 -8 2 -7 -7 1
-20 19 -27 15 -22 -15z m37 -11 c3 -5 -1 -9 -9 -9 -8 0 -15 4 -15 9 0 4 4 8 9
8 6 0 12 -4 15 -8z m51 -53 c-4 -5 -12 -9 -18 -8 -9 0 -8 2 1 6 6 2 9 10 6 15
-4 7 -2 8 5 4 6 -4 9 -12 6 -17z m-8 -45 c-3 -3 -12 -4 -19 -1 -8 3 -5 6 6 6
11 1 17 -2 13 -5z m-2 -62 c-3 -3 -11 0 -18 7 -9 10 -8 11 6 5 10 -3 15 -9 12
-12z m11 -44 c3 -4 1 -15 -6 -25 -10 -16 -10 -15 -4 6 4 15 2 21 -4 17 -6 -3
-13 -2 -16 3 -7 10 19 9 30 -1z m-11 -59 c11 -16 1 -19 -13 -3 -7 8 -8 14 -3
14 5 0 13 -5 16 -11z m0 -40 c11 -16 1 -19 -13 -3 -7 8 -8 14 -3 14 5 0 13 -5
16 -11z m0 -40 c11 -16 1 -19 -13 -3 -7 8 -8 14 -3 14 5 0 13 -5 16 -11z m-5
-33 c0 -3 -4 -8 -10 -11 -5 -3 -10 -1 -10 4 0 6 5 11 10 11 6 0 10 -2 10 -4z
m7 -302 c-3 -3 -12 -4 -19 -1 -8 3 -5 6 6 6 11 1 17 -2 13 -5z m7 -29 c-4 -8
-8 -15 -10 -15 -2 0 -4 7 -4 15 0 8 4 15 10 15 5 0 7 -7 4 -15z m-9 -36 c11
-16 1 -19 -13 -3 -7 8 -8 14 -3 14 5 0 13 -5 16 -11z m0 -40 c11 -16 1 -19
-13 -3 -7 8 -8 14 -3 14 5 0 13 -5 16 -11z m0 -40 c11 -16 1 -19 -13 -3 -7 8
-8 14 -3 14 5 0 13 -5 16 -11z m-5 -33 c0 -3 -4 -8 -10 -11 -5 -3 -10 -1 -10
4 0 6 5 11 10 11 6 0 10 -2 10 -4z m18 -41 c-3 -3 -9 2 -12 12 -6 14 -5 15 5
6 7 -7 10 -15 7 -18z m1 -118 c0 -9 -2 -8 -6 1 -2 6 -10 9 -15 6 -7 -4 -8 -2
-4 5 9 13 26 5 25 -12z m-24 -87 c-3 -5 -1 -10 6 -10 7 0 10 -3 6 -6 -9 -9
-28 6 -22 17 4 5 8 9 11 9 3 0 2 -4 -1 -10z m21 -62 c3 -4 1 -15 -6 -25 -10
-16 -10 -15 -4 6 4 15 2 21 -4 17 -6 -3 -13 -2 -16 3 -7 10 19 9 30 -1z m-11
-59 c11 -16 1 -19 -13 -3 -7 8 -8 14 -3 14 5 0 13 -5 16 -11z m5 -49 c6 -11 9
-20 8 -20 -2 0 -11 9 -21 20 -9 11 -13 20 -7 20 5 0 14 -9 20 -20z m-10 -75
c0 -8 -2 -15 -4 -15 -2 0 -6 7 -10 15 -3 8 -1 15 4 15 6 0 10 -7 10 -15z m120
-179 c0 -3 -4 -8 -10 -11 -5 -3 -10 -1 -10 4 0 6 5 11 10 11 6 0 10 -2 10 -4z
m40 -52 c0 -8 -19 -13 -24 -6 -3 5 1 9 9 9 8 0 15 -2 15 -3z m345 -82 c-3 -3
-11 0 -18 7 -9 10 -8 11 6 5 10 -3 15 -9 12 -12z m-170 -172 c-3 -4 0 -11 5
-13 6 -3 5 -4 -1 -3 -7 1 -13 10 -15 19 -1 9 2 15 7 11 5 -3 7 -9 4 -14z m35
10 c0 -5 -5 -10 -11 -10 -5 0 -7 5 -4 10 3 6 8 10 11 10 2 0 4 -4 4 -10z m100
-6 c8 -8 7 -13 -5 -18 -9 -3 -13 -2 -10 4 7 11 -30 8 -41 -3 -9 -8 -36 12 -29
22 6 11 73 7 85 -5z m80 6 c0 13 1 13 10 0 8 -12 10 -12 10 -1 0 8 2 12 5 9 3
-3 3 -12 -1 -21 -5 -13 -10 -14 -25 -6 -10 5 -19 15 -19 22 0 7 4 6 10 -3 9
-13 10 -13 10 0z m326 -2 c4 -7 3 -8 -4 -4 -7 4 -12 3 -12 -3 0 -5 6 -12 13
-14 9 -4 9 -6 0 -6 -15 -1 -26 16 -18 29 8 13 12 13 21 -2z"/>
<path d="M566 428 c3 -5 10 -6 15 -3 13 9 11 12 -6 12 -8 0 -12 -4 -9 -9z"/>
<path d="M2847 2277 c-6 -20 -5 -21 8 -4 8 11 16 14 19 8 4 -6 13 -8 22 -4 19
7 13 13 -19 18 -19 4 -26 0 -30 -18z"/>
<path d="M170 2286 c0 -2 7 -7 16 -10 8 -3 12 -2 9 4 -6 10 -25 14 -25 6z"/>
<path d="M2813 2275 c0 -8 4 -15 9 -15 4 0 8 4 8 9 0 6 -4 12 -8 15 -5 3 -9
-1 -9 -9z"/>
<path d="M2938 2275 c-3 -3 -22 -6 -42 -7 -20 -1 -39 -5 -42 -10 -3 -4 -16 -8
-29 -8 -22 0 -23 -3 -22 -60 1 -35 6 -59 12 -56 6 2 10 -7 10 -20 0 -20 -2
-22 -11 -9 -8 11 -11 -16 -11 -109 1 -76 5 -122 11 -119 5 4 6 1 0 -8 -13 -21
-13 -61 0 -56 6 3 11 -6 11 -19 0 -20 -2 -22 -11 -9 -8 11 -11 -16 -11 -109 1
-76 5 -122 11 -119 5 4 6 1 0 -8 -13 -21 -13 -61 0 -56 6 3 11 -6 11 -19 0
-20 -2 -22 -11 -9 -8 11 -11 -16 -11 -109 1 -76 5 -122 11 -119 5 4 6 1 0 -8
-13 -21 -13 -61 0 -56 6 3 11 -6 11 -19 0 -21 -2 -22 -11 -9 -9 12 -11 -11
-11 -95 1 -69 5 -110 12 -110 5 0 3 -5 -5 -10 -13 -9 -13 -11 0 -20 8 -5 10
-10 5 -10 -6 0 -12 -12 -13 -27 -6 -63 -12 -78 -35 -78 -7 0 -11 -11 -10 -23
3 -20 -11 -27 -47 -24 -3 0 -6 -8 -7 -18 -1 -13 3 -17 13 -13 7 3 11 9 8 14
-3 5 3 6 12 2 11 -4 13 -8 6 -11 -7 -2 -10 -8 -7 -13 4 -5 0 -6 -8 -3 -8 3
-18 1 -21 -4 -3 -6 -21 -8 -40 -5 -24 3 -35 0 -40 -12 -3 -9 -10 -13 -16 -10
-5 3 -7 0 -4 -9 5 -12 -14 -15 -123 -16 -237 -2 -242 -2 -230 -21 6 -9 16 -15
24 -12 7 3 10 10 6 16 -3 6 -1 7 6 3 6 -4 9 -11 6 -16 -3 -4 1 -10 7 -13 7 -2
-24 -3 -69 -2 -46 1 -83 -2 -83 -7 0 -5 -8 -4 -19 1 -10 6 -22 7 -26 3 -3 -4
-16 -7 -27 -7 -28 0 -34 -20 -8 -22 11 -1 18 2 15 7 -4 6 2 7 11 3 11 -4 13
-8 6 -11 -7 -2 -9 -8 -6 -14 4 -6 -2 -5 -15 1 -16 9 -21 9 -21 0 0 -8 -5 -7
-17 2 -11 10 -14 10 -9 1 5 -8 1 -12 -11 -12 -11 0 -25 -6 -32 -12 -11 -10
-13 -10 -7 0 5 8 0 12 -13 12 -15 0 -21 -6 -21 -24 0 -19 -5 -23 -25 -21 -14
2 -25 -1 -25 -5 0 -5 -11 -7 -24 -4 -21 3 -24 1 -21 -21 2 -21 -2 -25 -26 -25
-20 0 -29 -5 -29 -16 0 -8 -4 -13 -9 -9 -6 3 -15 -5 -21 -17 -10 -21 -10 -21
3 -6 8 10 17 14 21 10 9 -8 186 -11 182 -3 -2 3 5 14 16 24 12 11 18 13 18 5
0 -8 3 -9 8 -3 8 12 92 15 92 3 0 -4 5 -8 11 -8 5 0 8 4 5 8 -3 5 1 9 9 9 8 0
12 -4 9 -9 -3 -4 0 -8 7 -8 8 0 7 -5 -2 -17 -13 -16 -12 -17 3 -5 9 8 14 21
11 30 -4 15 -3 15 6 2 9 -13 11 -13 11 0 0 13 1 13 10 0 5 -8 10 -10 10 -5 0
6 16 11 35 11 19 0 35 -4 35 -9 0 -5 -7 -6 -16 -3 -8 3 -13 2 -10 -3 3 -5 -10
-8 -29 -6 -19 1 -36 -3 -38 -9 -3 -6 8 -11 24 -11 16 -1 29 2 29 5 0 3 9 6 20
7 13 1 18 -2 13 -10 -4 -8 -1 -7 9 1 9 8 14 21 11 30 -4 15 -3 15 6 2 9 -12
11 -13 11 -1 0 8 3 12 6 9 3 -4 1 -16 -5 -27 -9 -17 -9 -20 3 -15 9 3 15 9 14
12 -2 23 8 27 66 27 51 0 62 -2 54 -12 -15 -19 7 -17 25 2 13 13 16 13 21 -2
4 -9 4 -18 1 -21 -3 -3 -5 0 -5 7 0 9 -5 9 -20 1 -11 -6 -26 -7 -33 -3 -19 12
-35 12 -40 -1 -3 -8 29 -12 117 -13 181 -3 256 -7 256 -14 0 -3 7 -6 15 -6 8
0 15 4 15 9 0 5 5 6 11 2 8 -4 7 -9 -2 -15 -7 -4 -17 -5 -21 -3 -4 3 -5 -2 -1
-11 5 -13 7 -14 14 -3 7 10 9 10 9 -2 0 -12 2 -13 9 -1 7 11 10 11 15 0 3 -8
4 -4 2 9 -2 12 0 20 5 16 5 -3 9 -12 9 -20 0 -18 56 -19 63 -1 4 10 6 10 6 0
1 -7 6 -13 12 -13 5 0 7 6 3 13 -5 8 -2 8 9 -2 15 -12 17 -11 17 12 0 19 6 26
23 29 l22 3 0 920 0 920 -25 0 c-17 0 -25 6 -24 18 2 18 0 20 -8 12z m-11 -21
c-3 -3 -12 -4 -19 -1 -8 3 -5 6 6 6 11 1 17 -2 13 -5z m-94 -35 c-8 -8 -13 -7
-18 2 -5 8 -4 10 3 5 7 -4 12 -2 12 5 0 7 3 9 7 6 4 -4 2 -12 -4 -18z m153 0
c0 -10 -3 -16 -7 -13 -4 2 -10 -2 -13 -8 -3 -7 -3 -2 0 11 5 17 3 21 -6 16 -8
-5 -11 -4 -7 2 10 16 33 11 33 -8z m-136 -59 c0 -5 -5 -10 -11 -10 -5 0 -7 5
-4 10 3 6 8 10 11 10 2 0 4 -4 4 -10z m-26 -96 c3 -8 2 -12 -4 -9 -6 3 -10 10
-10 16 0 14 7 11 14 -7z m0 -40 c3 -8 2 -12 -4 -9 -6 3 -10 10 -10 16 0 14 7
11 14 -7z m0 -40 c3 -8 2 -12 -4 -9 -6 3 -10 10 -10 16 0 14 7 11 14 -7z m26
-24 c0 -5 -5 -10 -11 -10 -5 0 -7 5 -4 10 3 6 8 10 11 10 2 0 4 -4 4 -10z
m-20 -35 c0 -8 -4 -15 -10 -15 -5 0 -7 7 -4 15 4 8 8 15 10 15 2 0 4 -7 4 -15z
m17 -31 c-3 -3 -12 -4 -19 -1 -8 3 -5 6 6 6 11 1 17 -2 13 -5z m3 -54 c0 -5
-5 -10 -11 -10 -5 0 -7 5 -4 10 3 6 8 10 11 10 2 0 4 -4 4 -10z m-26 -96 c3
-8 2 -12 -4 -9 -6 3 -10 10 -10 16 0 14 7 11 14 -7z m0 -40 c3 -8 2 -12 -4 -9
-6 3 -10 10 -10 16 0 14 7 11 14 -7z m0 -40 c3 -8 2 -12 -4 -9 -6 3 -10 10
-10 16 0 14 7 11 14 -7z m26 -24 c0 -5 -5 -10 -11 -10 -5 0 -7 5 -4 10 3 6 8
10 11 10 2 0 4 -4 4 -10z m-20 -35 c0 -8 -4 -15 -10 -15 -5 0 -7 7 -4 15 4 8
8 15 10 15 2 0 4 -7 4 -15z m17 -31 c-3 -3 -12 -4 -19 -1 -8 3 -5 6 6 6 11 1
17 -2 13 -5z m3 -54 c0 -5 -5 -10 -11 -10 -5 0 -7 5 -4 10 3 6 8 10 11 10 2 0
4 -4 4 -10z m-26 -96 c3 -8 2 -12 -4 -9 -6 3 -10 10 -10 16 0 14 7 11 14 -7z
m0 -40 c3 -8 2 -12 -4 -9 -6 3 -10 10 -10 16 0 14 7 11 14 -7z m0 -40 c3 -8 2
-12 -4 -9 -6 3 -10 10 -10 16 0 14 7 11 14 -7z m26 -24 c0 -5 -5 -10 -11 -10
-5 0 -7 5 -4 10 3 6 8 10 11 10 2 0 4 -4 4 -10z m-20 -35 c0 -8 -4 -15 -10
-15 -5 0 -7 7 -4 15 4 8 8 15 10 15 2 0 4 -7 4 -15z m17 -31 c-3 -3 -12 -4
-19 -1 -8 3 -5 6 6 6 11 1 17 -2 13 -5z m3 -54 c0 -5 -5 -10 -11 -10 -5 0 -7
5 -4 10 3 6 8 10 11 10 2 0 4 -4 4 -10z m-26 -96 c3 -8 2 -12 -4 -9 -6 3 -10
10 -10 16 0 14 7 11 14 -7z m0 -40 c3 -8 2 -12 -4 -9 -6 3 -10 10 -10 16 0 14
7 11 14 -7z m0 -40 c3 -8 2 -12 -4 -9 -6 3 -10 10 -10 16 0 14 7 11 14 -7z m6
-59 c0 -8 -4 -15 -10 -15 -5 0 -7 7 -4 15 4 8 8 15 10 15 2 0 4 -7 4 -15z
m-189 -308 c-16 -16 -26 0 -10 19 9 11 15 12 17 4 2 -6 -1 -17 -7 -23z m-271
-21 c0 -2 -6 -9 -14 -15 -11 -9 -16 -9 -22 0 -4 7 -3 9 4 5 6 -3 13 -2 17 4 6
10 15 14 15 6z m-487 -171 c-3 -9 -8 -14 -10 -11 -3 3 -2 9 2 15 9 16 15 13 8
-4z m88 -24 c5 8 9 9 9 3 0 -6 -6 -16 -13 -22 -10 -8 -13 -6 -14 11 0 12 1 16
4 8 5 -11 7 -11 14 0z m556 -13 c-3 -8 -6 -5 -6 6 -1 11 2 17 5 13 3 -3 4 -12
1 -19z"/>
<path d="M7 2243 c-4 -3 -7 -11 -7 -17 0 -6 5 -5 12 2 6 6 9 14 7 17 -3 3 -9
2 -12 -2z"/>
<path d="M1418 2117 c-3 -19 -2 -25 4 -19 6 6 8 18 6 28 -3 14 -5 12 -10 -9z"/>
<path d="M1556 2122 c-3 -4 4 -9 15 -9 23 -2 25 3 4 10 -8 4 -16 3 -19 -1z"/>
<path d="M1555 2091 c-3 -5 -2 -12 3 -15 5 -3 9 1 9 9 0 17 -3 19 -12 6z"/>
<path d="M1430 2059 c0 -5 5 -7 10 -4 6 3 10 8 10 11 0 2 -4 4 -10 4 -5 0 -10
-5 -10 -11z"/>
<path d="M1575 2043 c5 -19 3 -22 -12 -17 -15 5 -15 4 -3 -5 21 -14 35 3 21
26 -11 16 -11 16 -6 -4z"/>
<path d="M1420 2000 c-12 -7 -10 -9 7 -7 12 0 19 5 17 9 -6 10 -6 10 -24 -2z"/>
<path d="M1558 1993 c7 -3 16 -2 19 1 4 3 -2 6 -13 5 -11 0 -14 -3 -6 -6z"/>
<path d="M1576 1957 c5 -14 2 -16 -12 -11 -16 5 -16 4 -4 -5 20 -14 39 4 21
22 -10 10 -11 9 -5 -6z"/>
<path d="M1558 1913 c7 -3 16 -2 19 1 4 3 -2 6 -13 5 -11 0 -14 -3 -6 -6z"/>
<path d="M1420 1880 c-8 -5 -10 -10 -5 -10 6 0 17 5 25 10 8 5 11 10 5 10 -5
0 -17 -5 -25 -10z"/>
<path d="M1576 1877 c5 -14 2 -16 -12 -11 -16 5 -16 4 -4 -5 20 -14 39 4 21
22 -10 10 -11 9 -5 -6z"/>
<path d="M1430 1851 c0 -6 4 -13 10 -16 6 -3 7 1 4 9 -7 18 -14 21 -14 7z"/>
<path d="M1558 1833 c7 -3 16 -2 19 1 4 3 -2 6 -13 5 -11 0 -14 -3 -6 -6z"/>
<path d="M1576 1797 c5 -14 2 -16 -12 -11 -16 5 -16 4 -4 -5 20 -14 39 4 21
22 -10 10 -11 9 -5 -6z"/>
<path d="M1435 1769 c-4 -6 -5 -12 -2 -15 2 -3 7 2 10 11 7 17 1 20 -8 4z"/>
<path d="M1558 1753 c7 -3 16 -2 19 1 4 3 -2 6 -13 5 -11 0 -14 -3 -6 -6z"/>
<path d="M1576 1717 c5 -14 2 -16 -12 -11 -16 5 -16 4 -4 -5 20 -14 39 4 21
22 -10 10 -11 9 -5 -6z"/>
<path d="M1420 1680 c-12 -7 -10 -9 7 -7 12 0 19 5 17 9 -6 10 -6 10 -24 -2z"/>
<path d="M1558 1673 c7 -3 16 -2 19 1 4 3 -2 6 -13 5 -11 0 -14 -3 -6 -6z"/>
<path d="M1576 1637 c5 -14 2 -16 -12 -11 -16 5 -16 4 -4 -5 20 -14 39 4 21
22 -10 10 -11 9 -5 -6z"/>
<path d="M1558 1593 c7 -3 16 -2 19 1 4 3 -2 6 -13 5 -11 0 -14 -3 -6 -6z"/>
<path d="M1420 1560 c-8 -5 -10 -10 -5 -10 6 0 17 5 25 10 8 5 11 10 5 10 -5
0 -17 -5 -25 -10z"/>
<path d="M1576 1557 c5 -14 2 -16 -12 -11 -16 5 -16 4 -4 -5 20 -14 39 4 21
22 -10 10 -11 9 -5 -6z"/>
<path d="M1430 1531 c0 -6 4 -13 10 -16 6 -3 7 1 4 9 -7 18 -14 21 -14 7z"/>
<path d="M1558 1513 c7 -3 16 -2 19 1 4 3 -2 6 -13 5 -11 0 -14 -3 -6 -6z"/>
<path d="M1576 1477 c5 -14 2 -16 -12 -11 -16 5 -16 4 -4 -5 20 -14 39 4 21
22 -10 10 -11 9 -5 -6z"/>
<path d="M1435 1449 c-4 -6 -5 -12 -2 -15 2 -3 7 2 10 11 7 17 1 20 -8 4z"/>
<path d="M1558 1433 c7 -3 16 -2 19 1 4 3 -2 6 -13 5 -11 0 -14 -3 -6 -6z"/>
<path d="M1555 1380 c-3 -5 -1 -10 4 -10 6 0 11 5 11 10 0 6 -2 10 -4 10 -3 0
-8 -4 -11 -10z"/>
<path d="M1425 1319 c-4 -6 -5 -12 -2 -15 2 -3 7 2 10 11 7 17 1 20 -8 4z"/>
<path d="M1557 1239 c4 -13 8 -18 11 -10 2 7 -1 18 -6 23 -8 8 -9 4 -5 -13z"/>
<path d="M1420 1200 c-9 -6 -10 -10 -3 -10 6 0 15 5 18 10 8 12 4 12 -15 0z"/>
<path d="M1570 1199 c0 -5 5 -7 10 -4 6 3 10 8 10 11 0 2 -4 4 -10 4 -5 0 -10
-5 -10 -11z"/>
<path d="M1430 1169 c0 -5 5 -7 10 -4 6 3 10 8 10 11 0 2 -4 4 -10 4 -5 0 -10
-5 -10 -11z"/>
<path d="M1555 1140 c-3 -5 -1 -10 4 -10 6 0 11 5 11 10 0 6 -2 10 -4 10 -3 0
-8 -4 -11 -10z"/>
<path d="M1426 1085 c-11 -8 -15 -15 -9 -15 6 0 16 7 23 15 16 19 11 19 -14 0z"/>
<path d="M1430 1049 c0 -5 5 -7 10 -4 6 3 10 8 10 11 0 2 -4 4 -10 4 -5 0 -10
-5 -10 -11z"/>
<path d="M1557 999 c4 -13 8 -18 11 -10 2 7 -1 18 -6 23 -8 8 -9 4 -5 -13z"/>
<path d="M1570 959 c0 -5 5 -7 10 -4 6 3 10 8 10 11 0 2 -4 4 -10 4 -5 0 -10
-5 -10 -11z"/>
<path d="M1417 943 c-3 -5 0 -17 4 -28 8 -18 9 -18 5 3 -3 18 -1 22 10 18 9
-3 12 -1 9 4 -7 12 -22 13 -28 3z"/>
<path d="M1555 900 c-3 -5 -1 -10 4 -10 6 0 11 5 11 10 0 6 -2 10 -4 10 -3 0
-8 -4 -11 -10z"/>
<path d="M1425 839 c-4 -6 -5 -12 -2 -15 2 -3 7 2 10 11 7 17 1 20 -8 4z"/>
<path d="M2570 809 c0 -5 5 -7 10 -4 6 3 10 8 10 11 0 2 -4 4 -10 4 -5 0 -10
-5 -10 -11z"/>
<path d="M790 778 c0 -4 5 -8 11 -8 5 0 7 -6 3 -12 -6 -10 -4 -10 8 0 13 10
17 10 21 0 5 -13 7 -9 7 19 0 4 -11 8 -25 9 -14 0 -25 -3 -25 -8z"/>
<path d="M1575 763 c5 -19 3 -22 -12 -17 -15 5 -15 4 -3 -5 21 -14 35 3 21 26
-11 16 -11 16 -6 -4z"/>
<path d="M1420 720 c-12 -7 -10 -9 7 -7 12 0 19 5 17 9 -6 10 -6 10 -24 -2z"/>
<path d="M1558 713 c7 -3 16 -2 19 1 4 3 -2 6 -13 5 -11 0 -14 -3 -6 -6z"/>
<path d="M355 681 c-6 -11 9 -23 19 -14 9 9 7 23 -3 23 -6 0 -12 -4 -16 -9z"/>
<path d="M1576 677 c5 -14 2 -16 -12 -11 -16 5 -16 4 -4 -5 20 -14 39 4 21 22
-10 10 -11 9 -5 -6z"/>
<path d="M1872 677 c-9 -11 -10 -17 -2 -22 15 -9 23 -1 18 21 -3 15 -4 16 -16
1z"/>
<path d="M732 636 c-32 -19 -35 -23 -11 -21 12 1 25 9 31 18 10 19 11 19 -20
3z"/>
<path d="M790 640 c-11 -7 -11 -10 -2 -10 8 0 10 -5 6 -12 -4 -7 -3 -9 1 -5 7
6 17 37 12 37 -1 0 -9 -5 -17 -10z"/>
<path d="M2155 640 c-3 -5 -1 -10 4 -10 6 0 11 5 11 10 0 6 -2 10 -4 10 -3 0
-8 -4 -11 -10z"/>
<path d="M1558 633 c7 -3 16 -2 19 1 4 3 -2 6 -13 5 -11 0 -14 -3 -6 -6z"/>
<path d="M2216 622 c-2 -4 4 -8 14 -8 10 0 16 4 14 8 -3 4 -9 8 -14 8 -5 0
-11 -4 -14 -8z"/>
<path d="M1430 599 c0 -5 5 -7 10 -4 6 3 10 8 10 11 0 2 -4 4 -10 4 -5 0 -10
-5 -10 -11z"/>
<path d="M1576 597 c5 -14 2 -16 -12 -11 -16 5 -16 4 -4 -5 20 -14 39 4 21 22
-10 10 -11 9 -5 -6z"/>
<path d="M1710 580 c0 -5 5 -10 10 -10 6 0 10 5 10 10 0 6 -4 10 -10 10 -5 0
-10 -4 -10 -10z"/>
<path d="M1558 553 c7 -3 16 -2 19 1 4 3 -2 6 -13 5 -11 0 -14 -3 -6 -6z"/>
<path d="M1910 540 c0 -6 7 -10 15 -10 8 0 15 2 15 4 0 2 -7 6 -15 10 -8 3
-15 1 -15 -4z"/>
<path d="M1433 519 c-2 -23 3 -25 10 -4 4 8 3 16 -1 19 -4 3 -9 -4 -9 -15z"/>
<path d="M1575 530 c3 -5 8 -10 11 -10 2 0 4 5 4 10 0 6 -5 10 -11 10 -5 0 -7
-4 -4 -10z"/>
<path d="M1140 485 c0 -8 4 -15 10 -15 5 0 7 7 4 15 -4 8 -8 15 -10 15 -2 0
-4 -7 -4 -15z"/>
<path d="M1214 434 c1 -9 11 -21 22 -26 18 -9 18 -8 2 5 -10 8 -15 16 -12 19
3 4 1 9 -4 12 -6 3 -9 -1 -8 -10z"/>
<path d="M906 428 c3 -5 -6 -7 -19 -4 -15 2 -27 -1 -30 -8 -7 -17 60 -13 78 5
14 13 12 15 -9 15 -14 0 -22 -4 -20 -8z"/>
<path d="M2038 435 c-3 -4 -14 -8 -24 -9 -10 -2 -20 -8 -22 -14 -4 -12 51 -11
56 1 5 12 -3 29 -10 22z"/>
<path d="M2069 426 c6 -7 9 -15 6 -18 -3 -2 2 -5 10 -5 8 0 12 5 8 10 -3 5 3
6 15 3 11 -4 23 -3 25 1 3 5 -2 9 -11 10 -9 0 -28 3 -40 7 -19 4 -21 2 -13 -8z"/>
<path d="M2333 427 c-12 -20 15 -27 37 -9 l22 18 -27 0 c-14 0 -29 -4 -32 -9z"/>
<path d="M230 378 c0 -5 -4 -6 -10 -3 -6 4 -7 -1 -3 -11 4 -11 8 -13 11 -6 2
7 7 10 12 7 4 -3 10 1 13 8 3 8 -1 14 -9 14 -8 0 -14 -4 -14 -9z"/>
<path d="M277 383 c-4 -3 -7 -13 -7 -22 1 -13 3 -13 11 2 11 19 8 33 -4 20z"/>
<path d="M1175 380 c3 -5 8 -10 11 -10 2 0 4 5 4 10 0 6 -5 10 -11 10 -5 0 -7
-4 -4 -10z"/>
<path d="M1790 378 c0 -4 4 -8 9 -8 6 0 12 4 15 8 3 5 -1 9 -9 9 -8 0 -15 -4
-15 -9z"/>
<path d="M2695 380 c-3 -5 -1 -10 4 -10 6 0 11 5 11 10 0 6 -2 10 -4 10 -3 0
-8 -4 -11 -10z"/>
<path d="M2747 367 c-3 -8 1 -14 9 -14 16 0 19 13 5 21 -5 3 -11 0 -14 -7z"/>
</g>
</svg>
